<?xml version="1.0" encoding="UTF-8" ?>
<!DOCTYPE svg PUBLIC "-//W3C//DTD SVG 1.1//EN" "http://www.w3.org/Graphics/SVG/1.1/DTD/svg11.dtd">
<svg width="400pt" height="400pt" viewBox="0 0 400 400" version="1.1" xmlns="http://www.w3.org/2000/svg">
<g id="#980000ff">
<path fill="#980000" opacity="1.00" d=" M 194.32 0.00 L 205.66 0.00 C 238.01 1.05 270.13 9.78 298.30 25.79 C 332.02 44.81 360.01 73.83 377.75 108.26 C 391.56 134.77 399.00 164.45 400.00 194.30 L 400.00 205.66 C 398.99 236.76 390.92 267.65 376.03 295.01 C 361.88 321.22 341.77 344.17 317.70 361.71 C 285.37 385.45 245.73 398.80 205.67 400.00 L 194.35 400.00 C 163.49 398.99 132.83 391.05 105.64 376.37 C 70.81 357.76 41.74 328.59 23.27 293.69 C 8.82 266.68 1.02 236.29 0.00 205.71 L 0.00 194.32 C 0.94 166.94 7.22 139.69 18.96 114.91 C 36.15 78.27 64.76 47.14 99.79 26.89 C 128.40 10.18 161.24 1.07 194.32 0.00 M 35.07 135.16 C 29.68 138.85 27.43 145.70 28.02 152.02 C 27.95 157.29 31.38 161.97 35.89 164.42 C 26.22 169.44 25.34 183.51 31.46 191.61 C 36.43 197.61 44.51 199.68 51.91 200.67 C 62.45 201.44 74.11 201.57 83.07 195.12 C 89.77 190.37 92.18 181.81 92.23 173.97 C 92.42 159.98 92.25 145.99 92.32 132.00 C 86.60 132.00 80.88 131.99 75.17 132.01 C 75.18 146.02 75.17 160.04 75.17 174.05 C 75.28 178.00 74.09 182.40 70.71 184.79 C 67.08 187.41 62.41 187.73 58.08 187.62 C 54.27 187.47 50.18 187.28 46.93 185.04 C 42.22 181.85 43.02 173.56 48.19 171.25 C 52.66 169.48 57.57 170.29 62.26 170.11 C 61.93 166.09 61.81 162.06 61.69 158.03 C 57.13 157.96 52.47 158.23 48.03 156.98 C 42.81 155.51 42.74 146.56 47.98 145.08 C 52.54 143.80 57.45 144.28 62.00 145.38 C 62.19 141.04 62.21 136.68 62.01 132.33 C 53.17 130.34 42.84 129.70 35.07 135.16 M 123.47 138.62 C 123.23 136.42 122.97 134.22 122.75 132.02 C 117.52 131.99 112.30 132.00 107.08 132.01 C 107.09 154.71 107.07 177.41 107.08 200.12 C 112.76 200.10 118.44 200.11 124.12 200.11 C 124.11 183.81 124.15 167.51 124.09 151.21 C 129.71 145.71 138.21 142.90 145.90 145.06 C 150.15 146.28 152.50 150.75 152.41 154.97 C 152.64 170.02 152.35 185.08 152.55 200.14 C 158.28 200.00 164.01 200.29 169.73 199.97 C 169.58 185.00 169.75 170.02 169.65 155.04 C 169.57 149.64 168.43 144.06 165.27 139.59 C 162.42 135.41 157.88 132.55 152.97 131.49 C 142.73 129.80 131.62 131.99 123.47 138.62 M 187.67 137.73 C 182.34 142.31 180.98 150.69 184.16 156.87 C 187.29 162.15 193.37 164.44 198.98 166.05 C 206.14 168.32 213.82 169.04 220.66 172.25 C 226.46 174.65 226.24 184.26 220.29 186.29 C 213.63 188.44 206.23 187.97 199.58 185.98 C 199.56 180.80 199.59 175.62 199.57 170.44 C 194.28 170.47 189.00 170.30 183.72 170.52 C 183.84 178.97 183.74 187.43 183.78 195.88 C 191.18 198.77 199.05 200.51 206.99 200.91 C 215.99 201.36 225.87 201.02 233.31 195.26 C 240.12 190.26 241.97 180.83 240.10 172.97 C 239.13 168.38 235.71 164.60 231.58 162.53 C 222.59 158.04 212.51 156.71 203.00 153.75 C 200.54 153.11 197.74 150.81 199.01 147.98 C 200.77 145.69 203.85 145.23 206.53 144.79 C 216.90 143.74 227.60 144.42 237.47 147.98 C 237.45 143.36 237.42 138.74 237.50 134.12 C 227.30 130.98 216.47 130.66 205.88 131.19 C 199.43 131.78 192.67 133.37 187.67 137.73 M 322.75 134.88 C 322.78 139.12 322.77 143.36 322.77 147.60 C 330.17 144.95 338.41 143.22 346.17 145.17 C 351.61 146.73 352.84 153.07 352.93 157.97 C 353.10 172.01 352.94 186.07 353.00 200.12 C 358.66 200.05 364.33 200.25 369.99 199.96 C 369.92 186.64 369.97 173.33 369.96 160.02 C 370.04 153.40 370.04 146.32 366.48 140.48 C 363.40 134.99 357.13 132.37 351.18 131.45 C 341.62 130.29 331.67 131.08 322.75 134.88 M 252.08 132.01 C 252.09 146.99 252.07 161.98 252.09 176.97 C 252.03 183.07 253.77 189.42 257.91 194.02 C 262.14 198.90 268.73 201.22 275.09 201.01 C 283.36 201.34 291.68 198.64 298.16 193.48 C 298.36 195.69 298.60 197.90 298.89 200.11 C 304.15 200.10 309.42 200.14 314.68 200.08 C 314.68 177.39 314.66 154.71 314.69 132.02 C 308.94 132.02 303.18 131.92 297.42 132.08 C 297.56 148.35 297.48 164.62 297.47 180.90 C 291.66 186.37 282.91 189.31 275.15 186.69 C 270.78 185.17 269.18 180.28 269.16 176.04 C 269.08 161.36 269.14 146.68 269.13 132.00 C 263.45 132.00 257.76 132.00 252.08 132.01 M 70.90 206.00 C 70.59 209.70 70.39 213.41 70.25 217.12 C 72.76 217.11 75.28 217.11 77.80 217.11 C 77.75 221.91 77.83 226.70 77.72 231.50 C 82.58 231.74 87.46 231.62 92.33 231.57 C 92.28 223.04 92.32 214.52 92.32 206.00 C 85.18 206.00 78.04 206.00 70.90 206.00 M 263.36 243.14 C 263.56 248.29 263.43 253.44 263.46 258.60 C 267.51 258.51 271.57 258.84 275.60 258.29 C 275.25 272.19 275.62 286.09 275.41 299.99 C 275.39 303.46 273.84 307.07 270.74 308.85 C 267.17 310.72 262.92 310.75 259.04 310.02 C 254.72 309.11 251.46 305.04 251.47 300.64 C 251.30 289.09 251.44 277.55 251.41 266.00 C 246.80 266.00 242.20 266.00 237.59 266.00 C 237.60 276.67 237.62 287.34 237.58 298.02 C 237.56 303.10 238.59 308.38 241.71 312.51 C 245.98 318.09 253.16 320.55 259.96 320.94 C 267.71 321.41 276.20 320.53 282.38 315.37 C 287.45 311.18 289.26 304.38 289.22 298.05 C 289.25 282.70 289.25 267.36 289.22 252.01 C 290.76 252.00 292.30 251.99 293.85 251.99 C 293.91 248.98 294.09 245.99 294.37 243.00 C 284.04 243.08 273.69 242.83 263.36 243.14 M 122.07 259.00 C 136.66 258.99 151.24 259.02 165.82 258.98 C 165.81 255.99 165.81 253.00 165.82 250.01 C 151.43 249.98 137.03 250.01 122.64 249.99 C 122.42 252.99 122.24 255.99 122.07 259.00 M 122.83 267.88 C 116.48 271.01 112.67 277.99 112.63 284.97 C 112.55 296.65 112.62 308.32 112.60 320.00 C 117.20 320.00 121.80 320.00 126.40 320.00 C 126.40 315.14 126.40 310.28 126.40 305.43 C 131.04 301.73 137.14 302.64 142.64 302.61 C 142.54 299.07 142.40 295.54 142.21 292.00 C 136.79 291.95 130.85 291.35 126.31 294.96 C 126.53 291.09 126.23 287.20 126.50 283.34 C 126.81 280.06 129.33 277.28 132.47 276.39 C 137.18 274.95 142.84 275.07 146.92 278.12 C 149.60 280.18 150.15 283.81 150.11 286.99 C 150.07 297.99 150.10 308.99 150.09 319.99 C 154.63 320.00 159.18 320.01 163.73 319.98 C 163.68 308.98 163.73 297.98 163.71 286.98 C 163.75 283.35 163.07 279.67 161.23 276.51 C 163.46 276.58 165.70 276.61 167.93 276.64 C 168.50 273.12 168.58 269.56 168.80 266.02 C 161.83 265.90 154.85 266.17 147.89 265.90 C 139.59 264.47 130.62 264.27 122.83 267.88 M 181.97 268.12 C 182.03 271.50 181.99 274.88 182.01 278.27 C 190.23 275.98 199.10 274.39 207.52 276.45 C 212.16 277.72 212.84 282.92 212.50 287.00 C 206.66 287.02 200.82 286.97 194.98 287.01 C 189.03 287.17 182.60 289.05 178.84 293.95 C 175.41 298.57 175.47 304.80 176.73 310.17 C 178.40 316.83 185.36 320.50 191.80 320.92 C 196.31 321.05 201.08 321.28 205.32 319.50 C 205.51 316.36 205.33 313.21 205.48 310.07 C 200.99 310.20 196.29 311.12 191.95 309.56 C 188.75 308.39 188.14 304.16 189.38 301.36 C 190.38 298.67 193.51 297.81 196.09 297.62 C 201.56 297.51 207.03 297.65 212.49 297.56 C 212.44 305.04 212.47 312.52 212.47 320.00 C 217.06 320.00 221.65 320.00 226.24 320.00 C 226.10 307.68 226.52 295.34 226.02 283.04 C 225.90 275.58 220.92 268.39 213.56 266.48 C 203.24 263.62 192.07 264.96 181.97 268.12 Z" />
</g>
<g id="#ffffffff">
<path fill="#ffffff" opacity="1.00" d=" M 35.07 135.16 C 42.84 129.70 53.17 130.34 62.01 132.33 C 62.21 136.68 62.19 141.04 62.00 145.38 C 57.45 144.28 52.54 143.80 47.98 145.08 C 42.74 146.56 42.81 155.51 48.03 156.98 C 52.47 158.23 57.13 157.96 61.69 158.03 C 61.81 162.06 61.93 166.09 62.26 170.11 C 57.57 170.29 52.66 169.48 48.19 171.25 C 43.02 173.56 42.22 181.85 46.93 185.04 C 50.18 187.28 54.27 187.47 58.08 187.62 C 62.41 187.73 67.08 187.41 70.71 184.79 C 74.09 182.40 75.28 178.00 75.17 174.05 C 75.17 160.04 75.18 146.02 75.17 132.01 C 80.88 131.99 86.60 132.00 92.32 132.00 C 92.25 145.99 92.42 159.98 92.23 173.97 C 92.18 181.81 89.77 190.37 83.07 195.12 C 74.11 201.57 62.45 201.44 51.91 200.67 C 44.51 199.68 36.43 197.61 31.46 191.61 C 25.34 183.51 26.22 169.44 35.89 164.42 C 31.38 161.97 27.95 157.29 28.02 152.02 C 27.43 145.70 29.68 138.85 35.07 135.16 Z" />
<path fill="#ffffff" opacity="1.00" d=" M 123.47 138.62 C 131.62 131.99 142.73 129.80 152.97 131.49 C 157.88 132.55 162.42 135.41 165.27 139.59 C 168.43 144.06 169.57 149.64 169.65 155.04 C 169.75 170.02 169.58 185.00 169.73 199.97 C 164.01 200.29 158.28 200.00 152.55 200.14 C 152.35 185.08 152.64 170.02 152.41 154.97 C 152.50 150.75 150.15 146.28 145.90 145.06 C 138.21 142.90 129.71 145.71 124.09 151.21 C 124.15 167.51 124.11 183.81 124.12 200.11 C 118.44 200.11 112.76 200.10 107.08 200.12 C 107.07 177.41 107.09 154.71 107.08 132.01 C 112.30 132.00 117.52 131.99 122.75 132.02 C 122.97 134.22 123.23 136.42 123.47 138.62 Z" />
<path fill="#ffffff" opacity="1.00" d=" M 187.67 137.73 C 192.67 133.37 199.43 131.78 205.88 131.19 C 216.47 130.66 227.30 130.98 237.50 134.12 C 237.42 138.74 237.45 143.36 237.47 147.98 C 227.60 144.42 216.90 143.74 206.53 144.79 C 203.85 145.23 200.77 145.69 199.01 147.98 C 197.74 150.81 200.54 153.11 203.00 153.75 C 212.51 156.71 222.59 158.04 231.58 162.53 C 235.71 164.60 239.13 168.38 240.10 172.97 C 241.97 180.83 240.12 190.26 233.31 195.26 C 225.87 201.02 215.99 201.36 206.99 200.91 C 199.05 200.51 191.18 198.77 183.78 195.88 C 183.74 187.43 183.84 178.97 183.72 170.52 C 189.00 170.30 194.28 170.47 199.57 170.44 C 199.59 175.62 199.56 180.80 199.58 185.98 C 206.23 187.97 213.63 188.44 220.29 186.29 C 226.24 184.26 226.46 174.65 220.66 172.25 C 213.82 169.04 206.14 168.32 198.98 166.05 C 193.37 164.44 187.29 162.15 184.16 156.87 C 180.98 150.69 182.34 142.31 187.67 137.73 Z" />
<path fill="#ffffff" opacity="1.00" d=" M 322.75 134.88 C 331.67 131.08 341.62 130.29 351.18 131.45 C 357.13 132.37 363.40 134.99 366.48 140.48 C 370.04 146.32 370.04 153.40 369.96 160.02 C 369.97 173.33 369.92 186.64 369.99 199.96 C 364.33 200.25 358.66 200.05 353.00 200.12 C 352.94 186.07 353.10 172.01 352.93 157.97 C 352.84 153.07 351.61 146.73 346.17 145.17 C 338.41 143.22 330.17 144.95 322.77 147.60 C 322.77 143.36 322.78 139.12 322.75 134.88 Z" />
<path fill="#ffffff" opacity="1.00" d=" M 252.08 132.01 C 257.76 132.00 263.45 132.00 269.13 132.00 C 269.14 146.68 269.08 161.36 269.16 176.04 C 269.18 180.28 270.78 185.17 275.15 186.69 C 282.91 189.31 291.66 186.37 297.47 180.90 C 297.48 164.62 297.56 148.35 297.42 132.08 C 303.18 131.92 308.94 132.02 314.69 132.02 C 314.66 154.71 314.68 177.39 314.68 200.08 C 309.42 200.14 304.15 200.10 298.89 200.11 C 298.60 197.90 298.36 195.69 298.16 193.48 C 291.68 198.64 283.36 201.34 275.09 201.01 C 268.73 201.22 262.14 198.90 257.91 194.02 C 253.77 189.42 252.03 183.07 252.09 176.97 C 252.07 161.98 252.09 146.99 252.08 132.01 Z" />
<path fill="#ffffff" opacity="1.00" d=" M 70.90 206.00 C 78.04 206.00 85.18 206.00 92.32 206.00 C 92.32 214.52 92.28 223.04 92.33 231.57 C 87.46 231.62 82.58 231.74 77.72 231.50 C 77.83 226.70 77.75 221.91 77.80 217.11 C 75.28 217.11 72.76 217.11 70.25 217.12 C 70.39 213.41 70.59 209.70 70.90 206.00 Z" />
<path fill="#ffffff" opacity="1.00" d=" M 263.36 243.14 C 273.69 242.83 284.04 243.08 294.37 243.00 C 294.09 245.99 293.91 248.98 293.85 251.99 C 292.30 251.99 290.76 252.00 289.22 252.01 C 289.25 267.36 289.25 282.70 289.22 298.05 C 289.26 304.38 287.45 311.18 282.38 315.37 C 276.20 320.53 267.71 321.41 259.96 320.94 C 253.16 320.55 245.98 318.09 241.71 312.51 C 238.59 308.38 237.56 303.10 237.58 298.02 C 237.62 287.34 237.60 276.67 237.59 266.00 C 242.20 266.00 246.80 266.00 251.41 266.00 C 251.44 277.55 251.30 289.09 251.47 300.64 C 251.46 305.04 254.72 309.11 259.04 310.02 C 262.92 310.75 267.17 310.72 270.74 308.85 C 273.84 307.07 275.39 303.46 275.41 299.99 C 275.62 286.09 275.25 272.19 275.60 258.29 C 271.57 258.84 267.51 258.51 263.46 258.60 C 263.43 253.44 263.56 248.29 263.36 243.14 Z" />
<path fill="#ffffff" opacity="1.00" d=" M 122.07 259.00 C 122.24 255.99 122.42 252.99 122.64 249.99 C 137.03 250.01 151.43 249.98 165.82 250.01 C 165.81 253.00 165.81 255.99 165.82 258.98 C 151.24 259.02 136.66 258.99 122.07 259.00 Z" />
<path fill="#ffffff" opacity="1.00" d=" M 122.83 267.88 C 130.62 264.27 139.59 264.47 147.89 265.90 C 154.85 266.17 161.83 265.90 168.80 266.02 C 168.58 269.56 168.50 273.12 167.93 276.64 C 165.70 276.61 163.46 276.58 161.23 276.51 C 163.07 279.67 163.75 283.35 163.71 286.98 C 163.73 297.98 163.68 308.98 163.73 319.98 C 159.18 320.01 154.63 320.00 150.09 319.99 C 150.10 308.99 150.07 297.99 150.11 286.99 C 150.15 283.81 149.60 280.18 146.92 278.12 C 142.84 275.07 137.18 274.95 132.47 276.39 C 129.33 277.28 126.81 280.06 126.50 283.34 C 126.23 287.20 126.53 291.09 126.31 294.96 C 130.85 291.35 136.79 291.95 142.21 292.00 C 142.40 295.54 142.54 299.07 142.64 302.61 C 137.14 302.64 131.04 301.73 126.40 305.43 C 126.40 310.28 126.40 315.14 126.40 320.00 C 121.80 320.00 117.20 320.00 112.60 320.00 C 112.62 308.32 112.55 296.65 112.63 284.97 C 112.67 277.99 116.48 271.01 122.83 267.88 Z" />
<path fill="#ffffff" opacity="1.00" d=" M 181.97 268.12 C 192.07 264.96 203.24 263.62 213.56 266.48 C 220.92 268.39 225.90 275.58 226.02 283.04 C 226.52 295.34 226.10 307.68 226.24 320.00 C 221.65 320.00 217.06 320.00 212.47 320.00 C 212.47 312.52 212.44 305.04 212.49 297.56 C 207.03 297.65 201.56 297.51 196.09 297.62 C 193.51 297.81 190.38 298.67 189.38 301.36 C 188.14 304.16 188.75 308.39 191.95 309.56 C 196.29 311.12 200.99 310.20 205.48 310.07 C 205.33 313.21 205.51 316.36 205.32 319.50 C 201.08 321.28 196.31 321.05 191.80 320.92 C 185.36 320.50 178.40 316.83 176.73 310.17 C 175.47 304.80 175.41 298.57 178.84 293.95 C 182.60 289.05 189.03 287.17 194.98 287.01 C 200.82 286.97 206.66 287.02 212.50 287.00 C 212.84 282.92 212.16 277.72 207.52 276.45 C 199.10 274.39 190.23 275.98 182.01 278.27 C 181.99 274.88 182.03 271.50 181.97 268.12 Z" />
</g>
</svg>
