<?xml version="1.0" encoding="utf-8"?>
<!DOCTYPE svg PUBLIC "-//W3C//DTD SVG 1.1//EN" "http://www.w3.org/Graphics/SVG/1.1/DTD/svg11.dtd">
<svg version="1.1" xmlns="http://www.w3.org/2000/svg" xmlns:xlink="http://www.w3.org/1999/xlink" width="1024" height="1024" viewBox="0 0 1024 1024">
<g id="icomoon-ignore">
</g>
<path d="M829.922 24h-639.842c-93.934 0-170.080 76.146-170.080 170.080v639.842c0 93.932 76.146 170.078 170.080 170.078h639.842c93.932 0 170.078-76.146 170.078-170.078v-639.842c0-93.934-76.146-170.080-170.078-170.080zM777.282 673.764c-6.958 7.25-15.402 15.018-26.45 23.856-27.63 22.104-184 138-222 162s-52 18-56 8 8-34 14-60 1.774-36.036-24-40c-1.898-0.292-3.774-0.69-5.622-1.158-178.874-21.442-316.378-150.19-316.378-305.842 0-170.656 165.282-309 369.168-309s369.168 138.344 369.168 309c0 82.638-38.758 157.7-101.886 213.144z"></path>
<path d="M352 574.944h-54.986v-132.976c0-7.56-1.724-13.192-5.172-16.888-3.45-3.696-7.958-5.544-13.522-5.544-5.484 0-9.908 1.87-13.274 5.608-3.366 3.74-5.046 9.348-5.046 16.826v140.704c0 7.976 1.764 13.754 5.296 17.324 3.53 3.574 9.324 5.36 17.384 5.36h69.32c6.064 0 10.676-1.39 13.834-4.176 3.156-2.782 4.736-6.418 4.736-10.906 0-4.402-1.602-8.058-4.798-10.964-3.2-2.916-7.79-4.368-13.772-4.368z"></path>
<path d="M410.32 419.534c-5.402 0-9.804 1.87-13.21 5.608-3.406 3.74-5.11 9.348-5.11 16.826v143.946c0 7.476 1.724 13.106 5.172 16.886 3.448 3.778 7.83 5.668 13.148 5.668 5.566 0 10.074-1.868 13.524-5.606 3.446-3.738 5.172-9.39 5.172-16.95v-143.946c0-7.56-1.726-13.192-5.172-16.888-3.45-3.696-7.958-5.544-13.524-5.544z"></path>
<path d="M597.654 419.534c-5.152 0-9.244 1.766-12.276 5.296-3.034 3.532-4.548 8.828-4.548 15.888v108.678l-70.83-107.68c-1.994-3.156-3.926-6.19-5.794-9.098-1.872-2.908-3.7-5.278-5.484-7.106-1.788-1.824-3.864-3.282-6.23-4.362-2.37-1.078-5.214-1.62-8.538-1.62-4.238 0-8.186 1.184-11.84 3.55-3.658 2.368-6.276 5.422-7.852 9.16-1.33 3.408-1.994 8.102-1.994 14.082v140.958c0 6.894 1.576 12.148 4.736 15.766 3.156 3.614 7.352 5.418 12.586 5.418 5.068 0 9.222-1.786 12.462-5.36 3.24-3.57 4.862-8.848 4.862-15.824v-107.056l69.086 106.434c1.994 2.91 3.988 5.754 5.98 8.54 1.994 2.782 4.154 5.214 6.482 7.29 2.324 2.078 4.816 3.594 7.476 4.546 2.658 0.958 5.648 1.434 8.972 1.434 13.292 0 19.942-8.016 19.942-24.050v-143.698c0-7.060-1.54-12.358-4.612-15.888-3.072-3.534-7.27-5.298-12.586-5.298z"></path>
<path d="M742.428 573.758h-65.414v-51.968h55.944c5.732 0 9.968-1.308 12.71-3.926s4.114-6 4.114-10.156-1.392-7.5-4.176-10.036c-2.786-2.532-7-3.8-12.648-3.8h-55.944v-44.866h62.546c5.898 0 10.284-1.308 13.148-3.926 2.868-2.618 4.3-6.086 4.3-10.406 0-4.238-1.434-7.664-4.3-10.282s-7.25-3.926-13.148-3.926h-76.878c-5.234 0-9.536 0.77-12.898 2.304-3.366 1.54-5.84 3.988-7.416 7.354-1.58 3.366-2.368 7.708-2.368 13.024v137.34c0 7.976 1.764 13.754 5.294 17.324 3.532 3.574 9.326 5.36 17.386 5.36h79.746c5.814 0 10.198-1.352 13.148-4.050 2.948-2.7 4.424-6.21 4.424-10.532 0-4.488-1.476-8.078-4.424-10.782-2.948-2.698-7.332-4.050-13.146-4.050z"></path>
</svg>
