<?xml version="1.0" encoding="UTF-8" ?>
<!DOCTYPE svg PUBLIC "-//W3C//DTD SVG 1.1//EN" "http://www.w3.org/Graphics/SVG/1.1/DTD/svg11.dtd">
<svg width="125px" height="50px" viewBox="0 0 1024 409" version="1.1" xmlns="http://www.w3.org/2000/svg">
<g id="#0000001b">
<path fill="#000000" opacity="0.11" d=" M 952.57 104.01 C 952.32 99.40 953.64 94.93 955.78 90.89 C 955.73 100.98 955.88 111.08 955.65 121.18 C 959.46 124.11 964.65 124.63 969.11 123.00 C 970.08 122.55 971.17 121.86 971.42 120.73 C 972.36 116.82 971.89 112.72 972.89 108.83 C 976.43 105.95 981.24 107.84 985.24 108.53 C 985.21 145.03 985.25 181.52 985.22 218.01 C 985.15 225.66 983.64 233.89 978.14 239.60 C 979.39 234.40 981.97 229.43 981.70 223.96 C 981.72 187.62 981.71 151.29 981.72 114.96 C 982.09 112.47 980.41 110.53 977.99 110.24 C 973.90 111.69 974.72 116.70 974.01 120.09 C 973.88 124.67 968.98 126.95 965.01 127.31 C 960.63 127.50 954.94 126.25 953.49 121.47 C 951.92 115.80 952.78 109.82 952.57 104.01 Z" />
</g>
<g id="#990000ff">
<path fill="#990000" opacity="1.00" d=" M 955.78 90.89 C 976.76 90.92 997.74 90.87 1018.72 90.92 C 1018.64 92.38 1018.59 93.86 1018.52 95.33 C 1018.33 98.33 1018.17 101.33 1018.07 104.34 C 1002.50 104.10 986.93 104.33 971.36 104.24 C 971.30 109.81 971.26 115.38 971.30 120.95 C 966.08 120.94 960.86 120.81 955.65 121.18 C 955.88 111.08 955.73 100.98 955.78 90.89 Z" />
<path fill="#990000" opacity="1.00" d=" M 985.24 105.47 C 991.38 105.45 997.53 105.46 1003.68 105.46 C 1003.67 106.75 1003.66 108.03 1003.68 109.33 C 1003.70 145.23 1003.73 181.13 1003.67 217.04 C 1003.66 229.35 1000.38 242.48 991.16 251.19 C 980.83 261.16 965.89 264.15 952.00 264.34 C 937.61 264.48 922.01 261.97 910.97 251.99 C 901.40 243.53 897.73 230.36 897.64 217.97 C 897.55 192.40 897.65 166.83 897.61 141.26 C 903.76 141.21 909.91 141.23 916.06 141.24 C 916.06 141.79 916.05 142.88 916.05 143.42 C 916.00 167.62 916.05 191.81 916.03 216.00 C 916.00 223.50 916.85 231.51 921.52 237.68 C 927.87 246.05 939.12 248.28 949.05 248.49 C 959.23 248.64 970.65 247.22 978.14 239.60 C 983.64 233.89 985.15 225.66 985.22 218.01 C 985.25 181.52 985.21 145.03 985.24 108.53 C 985.24 107.77 985.24 106.24 985.24 105.47 Z" />
<path fill="#990000" opacity="1.00" d=" M 647.18 107.67 C 676.52 107.61 705.87 107.70 735.22 107.63 C 735.16 112.03 735.22 116.44 735.23 120.84 C 734.65 120.93 733.49 121.09 732.91 121.18 C 710.27 120.66 687.62 121.08 664.97 120.94 C 659.71 120.89 654.44 120.97 649.19 121.17 C 648.47 121.11 647.04 120.99 646.32 120.93 C 646.58 116.77 646.90 112.62 647.13 108.46 L 647.18 107.67 Z" />
<path fill="#990000" opacity="1.00" d=" M 33.53 139.77 C 42.75 138.32 52.29 138.95 61.29 141.39 C 61.34 146.53 61.36 151.67 61.34 156.81 C 60.72 156.66 59.47 156.35 58.84 156.20 C 50.51 154.39 41.23 153.62 33.30 157.36 C 25.06 161.53 23.70 172.56 26.58 180.50 C 28.58 185.83 33.75 189.26 39.10 190.60 C 46.40 192.45 54.01 191.46 61.45 191.72 C 61.87 196.39 62.16 201.07 62.81 205.71 C 53.39 206.15 43.29 204.25 34.47 208.48 C 24.55 213.47 22.33 227.16 26.57 236.61 C 30.03 243.50 37.96 246.31 45.09 247.50 C 54.66 248.90 64.60 249.09 74.04 246.77 C 78.46 245.60 82.80 243.67 86.13 240.48 C 91.65 235.25 93.17 227.32 93.11 220.01 C 93.10 194.45 93.15 168.90 93.08 143.35 C 93.08 142.82 93.08 141.77 93.08 141.25 C 99.23 141.22 105.37 141.23 111.52 141.24 C 111.54 143.29 111.57 145.34 111.57 147.39 C 111.40 171.28 111.57 195.17 111.49 219.06 C 111.36 229.64 108.98 240.72 102.09 249.06 C 96.10 256.47 87.03 260.69 77.85 262.57 C 66.06 264.95 53.84 264.76 41.99 262.98 C 31.35 261.20 20.29 257.34 13.11 248.89 C 6.92 241.63 5.48 231.59 6.35 222.37 C 7.41 214.31 11.82 206.65 18.65 202.15 C 20.37 201.03 22.16 200.03 23.95 199.03 C 16.93 196.45 11.16 191.04 8.44 184.03 C 5.75 175.47 6.24 165.92 9.53 157.59 C 13.52 147.79 23.37 141.50 33.53 139.77 Z" />
<path fill="#990000" opacity="1.00" d=" M 165.90 151.97 C 176.14 143.94 188.98 139.37 201.99 139.08 C 212.45 138.53 223.67 140.25 232.01 147.06 C 239.85 153.22 244.02 162.92 245.35 172.61 C 246.04 180.06 245.87 187.55 245.88 195.02 C 245.88 217.36 245.88 239.70 245.88 262.04 C 239.75 262.15 233.63 262.16 227.51 262.04 C 227.46 235.41 227.55 208.78 227.47 182.15 C 227.36 174.41 225.87 165.69 219.54 160.50 C 212.38 154.90 202.68 154.30 193.96 155.03 C 181.68 156.13 170.58 162.73 162.04 171.36 C 161.94 201.58 162.03 231.81 162.00 262.04 C 155.88 262.15 149.76 262.15 143.64 262.04 C 143.59 221.78 143.68 181.52 143.60 141.26 C 149.16 141.21 154.71 141.23 160.27 141.24 C 160.38 142.79 160.49 144.33 160.60 145.88 C 160.83 149.13 161.08 152.38 161.33 155.64 C 162.85 154.41 164.36 153.17 165.90 151.97 Z" />
<path fill="#990000" opacity="1.00" d=" M 276.79 153.20 C 284.33 143.87 296.76 140.94 308.13 139.66 C 326.35 138.05 345.04 139.37 362.58 144.75 C 362.63 150.17 362.62 155.59 362.63 161.02 L 362.56 160.99 C 348.21 156.36 333.05 154.21 317.98 154.87 C 311.66 155.17 305.27 155.57 299.16 157.29 C 295.88 158.21 292.53 159.94 290.93 163.10 C 289.23 166.23 289.58 169.96 290.41 173.29 C 292.83 178.13 298.08 180.54 303.04 181.95 C 319.38 186.52 336.54 188.79 351.96 196.23 C 361.49 200.93 367.72 210.92 368.41 221.45 C 369.17 231.41 367.98 242.34 361.18 250.16 C 352.73 259.91 339.39 263.38 326.98 264.13 C 309.13 265.02 291.09 262.13 274.37 255.80 C 274.34 242.33 274.44 228.86 274.31 215.39 C 274.31 213.54 274.35 211.68 274.40 209.83 C 280.10 209.84 285.81 209.83 291.52 209.86 L 291.51 210.43 C 291.43 221.59 291.50 232.76 291.49 243.93 C 293.64 244.60 295.79 245.28 297.97 245.87 C 308.68 248.58 319.93 249.20 330.88 247.78 C 334.69 247.05 338.69 246.38 341.99 244.19 C 350.88 239.39 351.21 227.42 349.02 218.76 C 347.59 212.39 341.90 207.96 335.94 206.03 C 321.20 201.22 305.65 199.37 291.03 194.13 C 284.68 191.93 279.32 187.59 275.09 182.43 C 270.81 173.19 270.97 161.75 276.79 153.20 Z" />
<path fill="#990000" opacity="1.00" d=" M 517.38 145.23 C 533.43 139.46 551.05 137.21 567.87 140.56 C 577.75 142.43 587.14 148.45 591.29 157.86 C 594.77 166.09 595.62 175.11 595.58 183.97 C 595.59 210.01 595.60 236.05 595.58 262.10 C 589.42 262.19 583.27 262.20 577.12 262.09 C 577.08 235.40 577.17 208.71 577.08 182.02 C 576.72 175.18 576.65 167.49 572.01 161.96 C 567.55 156.83 560.43 155.48 553.98 154.98 C 541.57 154.06 529.14 156.54 517.42 160.49 C 517.42 156.09 517.42 151.70 517.39 147.30 C 517.38 146.78 517.38 145.74 517.38 145.23 Z" />
<path fill="#990000" opacity="1.00" d=" M 653.36 142.61 C 668.38 137.74 684.62 138.36 699.99 141.12 C 714.03 141.41 728.07 141.13 742.11 141.24 C 742.08 141.80 742.01 142.93 741.97 143.49 C 741.66 147.77 741.42 152.05 741.17 156.34 C 735.11 156.40 729.06 156.44 723.01 156.36 C 728.87 164.66 731.13 174.91 730.89 184.95 C 730.88 210.66 730.89 236.37 730.88 262.08 C 724.75 262.18 718.62 262.19 712.49 262.08 C 712.44 235.39 712.52 208.70 712.46 182.01 C 712.47 174.58 710.55 166.40 704.45 161.58 C 697.03 155.80 687.16 154.80 678.06 154.77 C 669.54 155.01 660.36 156.02 653.36 161.35 C 647.64 165.67 645.30 173.01 645.11 179.93 C 644.82 189.75 645.10 199.59 645.00 209.41 C 646.60 208.28 648.18 207.13 649.84 206.07 C 660.47 199.05 673.66 200.58 685.73 200.48 C 685.79 201.48 685.85 202.47 685.92 203.47 C 686.14 207.51 686.39 211.54 686.63 215.58 C 677.68 215.91 668.58 214.79 659.78 216.86 C 654.38 218.09 649.54 220.89 645.09 224.08 C 644.93 236.75 645.06 249.42 645.00 262.09 C 638.87 262.19 632.74 262.19 626.61 262.09 C 626.59 236.05 626.60 210.02 626.60 183.98 C 626.56 176.43 627.81 168.83 630.75 161.85 C 635.08 152.54 643.67 145.71 653.36 142.61 Z" />
<path fill="#990000" opacity="1.00" d=" M 775.36 145.20 C 788.48 140.99 802.28 139.19 816.03 139.00 C 826.89 138.99 838.19 139.90 847.99 144.98 C 854.25 148.14 859.23 153.55 862.21 159.88 C 865.38 167.51 866.47 175.82 866.45 184.04 C 866.47 210.05 866.46 236.07 866.45 262.08 C 860.30 262.19 854.15 262.19 848.00 262.08 C 847.93 243.59 848.11 225.10 847.88 206.61 C 834.60 206.66 821.32 206.56 808.04 206.65 C 800.78 206.92 792.99 207.61 786.92 212.00 C 781.97 215.66 780.09 222.08 780.14 228.00 C 780.00 233.12 781.15 238.49 784.63 242.41 C 789.57 246.99 796.62 247.99 803.08 248.40 C 809.62 248.78 816.19 248.24 822.59 246.81 C 822.59 248.34 822.62 249.87 822.62 251.41 C 822.58 254.97 822.56 258.53 822.56 262.09 C 810.87 264.67 798.48 265.41 786.81 262.35 C 778.35 260.06 770.19 254.94 766.12 246.95 C 761.95 239.06 761.83 229.87 762.47 221.19 C 763.82 213.37 767.65 205.86 773.93 200.88 C 782.85 193.60 794.77 191.63 805.97 191.35 C 819.08 191.22 832.20 191.32 845.32 191.30 C 845.99 191.30 847.33 191.30 848.00 191.31 C 847.90 183.59 848.65 175.57 845.95 168.18 C 844.49 164.02 841.34 160.53 837.37 158.61 C 831.99 155.91 825.87 155.30 819.95 154.92 C 804.82 154.20 789.55 156.05 775.10 160.62 C 775.51 155.49 775.25 150.34 775.36 145.20 Z" />
<path fill="#990000" opacity="1.00" d=" M 395.61 141.22 C 401.76 141.25 407.91 141.22 414.07 141.24 C 414.06 141.78 414.06 142.87 414.06 143.41 C 413.99 168.60 414.05 193.79 414.03 218.97 C 414.03 226.50 414.68 234.67 419.59 240.77 C 424.81 246.92 433.40 248.37 441.04 248.50 C 455.47 248.92 469.59 242.39 479.43 231.99 C 479.45 201.74 479.36 171.49 479.48 141.24 C 485.62 141.23 491.77 141.22 497.92 141.25 C 497.92 141.81 497.91 142.92 497.91 143.48 C 497.84 183.02 497.91 222.55 497.88 262.09 C 492.34 262.18 486.79 262.19 481.25 262.10 C 480.84 257.35 480.45 252.60 480.13 247.84 C 465.03 261.33 443.58 267.23 423.75 263.07 C 414.89 261.17 406.74 255.77 402.05 247.94 C 396.54 239.05 395.48 228.29 395.59 218.05 C 395.61 192.44 395.58 166.83 395.61 141.22 Z" />
<path fill="#990000" opacity="1.00" d=" M 82.54 276.06 C 92.49 276.04 102.44 276.08 112.38 276.04 C 112.39 290.02 112.42 303.99 112.39 317.97 C 107.07 318.13 101.74 318.13 96.42 317.95 C 96.40 310.14 96.41 302.33 96.43 294.52 C 96.42 292.56 96.41 290.61 96.40 288.65 C 91.67 288.63 86.94 288.72 82.22 288.69 C 82.07 288.64 81.77 288.54 81.62 288.49 C 81.88 285.46 82.10 282.42 82.29 279.38 C 82.37 278.27 82.45 277.17 82.54 276.06 Z" />
</g>
<g id="#0000002a">
<path fill="#000000" opacity="0.16" d=" M 1018.52 95.33 C 1021.61 98.82 1021.12 104.64 1017.64 107.67 C 1014.60 109.42 1010.83 109.13 1007.74 110.76 C 1006.16 111.55 1006.56 113.52 1006.37 114.96 C 1006.45 148.64 1006.38 182.32 1006.41 216.00 C 1006.01 228.74 1004.11 242.50 995.48 252.49 C 985.02 265.09 967.79 269.59 952.01 269.56 C 936.39 269.92 919.44 266.43 908.09 254.93 C 898.27 245.41 895.20 231.17 895.21 217.95 C 895.52 196.62 895.34 175.28 895.36 153.95 C 895.35 149.48 896.35 145.09 897.60 140.82 L 897.61 141.26 C 897.65 166.83 897.55 192.40 897.64 217.97 C 897.73 230.36 901.40 243.53 910.97 251.99 C 922.01 261.97 937.61 264.48 952.00 264.34 C 965.89 264.15 980.83 261.16 991.16 251.19 C 1000.38 242.48 1003.66 229.35 1003.67 217.04 C 1003.73 181.13 1003.70 145.23 1003.68 109.33 C 1008.41 107.49 1013.32 106.15 1018.07 104.34 C 1018.17 101.33 1018.33 98.33 1018.52 95.33 Z" />
</g>
<g id="#0000003e">
<path fill="#000000" opacity="0.24" d=" M 971.36 104.24 C 986.93 104.33 1002.50 104.10 1018.07 104.34 C 1013.32 106.15 1008.41 107.49 1003.68 109.33 C 1003.66 108.03 1003.67 106.75 1003.68 105.46 C 997.53 105.46 991.38 105.45 985.24 105.47 C 985.24 106.24 985.24 107.77 985.24 108.53 C 981.24 107.84 976.43 105.95 972.89 108.83 C 971.89 112.72 972.36 116.82 971.42 120.73 C 971.17 121.86 970.08 122.55 969.11 123.00 C 964.65 124.63 959.46 124.11 955.65 121.18 C 960.86 120.81 966.08 120.94 971.30 120.95 C 971.26 115.38 971.30 109.81 971.36 104.24 Z" />
</g>
<g id="#0000001d">
<path fill="#000000" opacity="0.11" d=" M 735.22 107.63 C 738.59 112.13 740.11 118.38 737.49 123.60 C 735.37 127.14 730.76 127.64 727.02 127.69 C 702.65 127.64 678.28 127.65 653.91 127.66 C 650.17 127.68 645.75 126.70 644.01 123.00 C 642.17 118.05 643.23 112.15 647.13 108.46 C 646.90 112.62 646.58 116.77 646.32 120.93 C 647.04 120.99 648.47 121.11 649.19 121.17 C 652.31 122.44 655.53 123.73 658.97 123.63 C 680.31 123.49 701.66 123.46 723.00 123.64 C 726.48 123.76 729.75 122.47 732.91 121.18 C 733.49 121.09 734.65 120.93 735.23 120.84 C 735.22 116.44 735.16 112.03 735.22 107.63 Z" />
<path fill="#000000" opacity="0.11" d=" M 414.06 143.41 C 416.80 146.65 417.40 150.91 417.34 155.01 C 417.29 178.34 417.33 201.68 417.31 225.01 C 417.22 230.37 419.07 235.48 419.59 240.77 C 414.68 234.67 414.03 226.50 414.03 218.97 C 414.05 193.79 413.99 168.60 414.06 143.41 Z" />
<path fill="#000000" opacity="0.11" d=" M 916.05 143.42 C 918.65 146.33 919.49 150.18 919.35 154.00 C 919.30 176.69 919.32 199.38 919.31 222.07 C 919.06 227.40 921.49 232.37 921.52 237.68 C 916.85 231.51 916.00 223.50 916.03 216.00 C 916.05 191.81 916.00 167.62 916.05 143.42 Z" />
</g>
<g id="#0000003f">
<path fill="#000000" opacity="0.25" d=" M 649.19 121.17 C 654.44 120.97 659.71 120.89 664.97 120.94 C 687.62 121.08 710.27 120.66 732.91 121.18 C 729.75 122.47 726.48 123.76 723.00 123.64 C 701.66 123.46 680.31 123.49 658.97 123.63 C 655.53 123.73 652.31 122.44 649.19 121.17 Z" />
</g>
<g id="#00000033">
<path fill="#000000" opacity="0.20" d=" M 143.59 140.72 L 143.60 141.26 C 143.68 181.52 143.59 221.78 143.64 262.04 C 149.76 262.15 155.88 262.15 162.00 262.04 C 162.03 231.81 161.94 201.58 162.04 171.36 C 170.58 162.73 181.68 156.13 193.96 155.03 C 202.68 154.30 212.38 154.90 219.54 160.50 C 225.87 165.69 227.36 174.41 227.47 182.15 C 227.55 208.78 227.46 235.41 227.51 262.04 C 233.63 262.16 239.75 262.15 245.88 262.04 C 245.88 239.70 245.88 217.36 245.88 195.02 C 245.87 187.55 246.04 180.06 245.35 172.61 C 247.33 175.63 247.56 179.28 247.56 182.79 C 247.55 207.52 247.51 232.26 247.59 256.99 C 247.47 259.95 247.34 263.74 244.45 265.40 C 239.60 267.72 233.50 268.00 228.75 265.30 C 225.90 263.16 225.57 259.25 225.47 255.97 C 225.54 231.98 225.49 207.98 225.51 183.99 C 225.49 176.16 223.12 167.24 215.74 163.25 C 205.99 158.22 194.20 158.85 183.97 162.02 C 176.98 164.59 169.99 168.39 165.49 174.48 C 163.09 179.60 163.45 185.54 164.07 191.02 C 164.73 196.36 163.43 201.66 163.49 207.00 C 163.25 213.02 164.36 219.01 163.85 225.02 C 163.39 230.37 164.50 235.72 163.80 241.06 C 162.99 247.72 164.25 254.47 163.22 261.11 C 162.68 264.47 159.25 266.36 156.10 266.55 C 152.02 266.86 147.21 267.11 144.02 264.07 C 141.74 262.05 141.55 258.81 141.48 255.98 C 141.57 222.66 141.52 189.34 141.51 156.02 C 141.57 150.85 142.50 145.75 143.59 140.72 Z" />
</g>
<g id="#00000023">
<path fill="#000000" opacity="0.14" d=" M 392.60 154.96 C 392.48 150.20 393.78 145.57 395.61 141.22 C 395.58 166.83 395.61 192.44 395.59 218.05 C 395.48 228.29 396.54 239.05 402.05 247.94 C 406.74 255.77 414.89 261.17 423.75 263.07 C 443.58 267.23 465.03 261.33 480.13 247.84 C 480.45 252.60 480.84 257.35 481.25 262.10 C 486.79 262.19 492.34 262.18 497.88 262.09 C 497.91 222.55 497.84 183.02 497.91 143.48 C 499.33 145.80 500.67 148.31 500.64 151.11 C 500.99 173.73 500.22 196.38 501.05 219.00 C 500.27 231.96 500.94 244.95 500.62 257.92 C 500.40 261.31 499.53 265.61 495.91 266.92 C 491.39 268.55 486.05 268.54 481.76 266.22 C 479.32 264.14 478.55 260.75 476.38 258.42 C 472.34 259.16 468.98 261.74 465.34 263.47 C 456.96 267.99 447.35 269.37 438.00 270.23 C 425.20 270.45 411.19 266.62 402.89 256.25 C 393.05 244.62 392.16 228.51 392.64 213.97 C 392.64 194.30 392.68 174.63 392.60 154.96 Z" />
<path fill="#000000" opacity="0.14" d=" M 627.32 166.32 C 627.86 164.44 629.35 163.11 630.75 161.85 C 627.81 168.83 626.56 176.43 626.60 183.98 C 626.60 210.02 626.59 236.05 626.61 262.09 C 632.74 262.19 638.87 262.19 645.00 262.09 C 645.06 249.42 644.93 236.75 645.09 224.08 C 649.54 220.89 654.38 218.09 659.78 216.86 C 668.58 214.79 677.68 215.91 686.63 215.58 C 686.39 211.54 686.14 207.51 685.92 203.47 C 689.95 207.52 690.20 214.36 686.80 218.85 C 683.70 221.86 678.94 221.31 674.97 221.45 C 666.71 221.20 657.79 221.93 650.84 226.84 C 648.01 228.58 648.28 232.16 648.26 235.03 C 648.39 242.35 647.56 249.64 647.71 256.96 C 647.76 260.50 647.26 264.96 643.61 266.62 C 638.66 268.83 632.53 268.92 627.74 266.28 C 624.27 264.16 623.55 259.75 623.59 256.01 C 623.68 233.00 623.64 209.98 623.61 186.97 C 623.71 179.95 625.04 172.95 627.32 166.32 Z" />
<path fill="#000000" opacity="0.14" d=" M 112.38 276.04 C 114.46 281.10 115.68 286.51 115.42 292.01 C 115.11 299.67 115.77 307.36 115.13 315.00 C 114.90 318.61 112.74 322.31 108.97 323.04 C 104.20 324.19 97.32 324.06 94.92 318.94 C 92.61 313.24 93.88 306.95 93.65 300.98 C 93.51 299.03 93.77 296.39 91.72 295.32 C 88.04 293.70 82.98 294.21 80.66 290.32 C 78.32 286.82 79.73 282.32 82.29 279.38 C 82.10 282.42 81.88 285.46 81.62 288.49 C 81.77 288.54 82.07 288.64 82.22 288.69 C 86.88 290.83 91.69 292.59 96.43 294.52 C 96.41 302.33 96.40 310.14 96.42 317.95 C 101.74 318.13 107.07 318.13 112.39 317.97 C 112.42 303.99 112.39 290.02 112.38 276.04 Z" />
</g>
<g id="#0000001c">
<path fill="#000000" opacity="0.11" d=" M 89.66 153.99 C 89.52 150.14 90.38 146.23 93.08 143.35 C 93.15 168.90 93.10 194.45 93.11 220.01 C 93.17 227.32 91.65 235.25 86.13 240.48 C 87.59 235.41 89.93 230.44 89.72 225.04 C 89.68 201.36 89.74 177.68 89.66 153.99 Z" />
</g>
<g id="#00000026">
<path fill="#000000" opacity="0.15" d=" M 741.97 143.49 C 745.10 147.91 745.30 153.99 742.63 158.67 C 741.08 161.34 737.61 161.30 734.96 161.97 C 733.05 162.45 730.15 162.36 729.80 164.90 C 730.31 168.48 731.76 171.83 732.51 175.36 C 733.96 181.80 733.56 188.44 733.61 194.99 C 733.62 215.67 733.55 236.36 733.66 257.04 C 733.65 260.54 733.20 264.91 729.63 266.64 C 725.99 268.16 721.90 267.78 718.06 267.61 C 714.91 267.46 711.32 265.96 710.36 262.70 C 709.09 257.92 709.69 252.93 709.62 248.05 C 709.61 227.04 709.66 206.02 709.62 185.01 C 709.69 176.92 706.42 167.95 698.69 164.30 C 689.52 160.08 678.98 159.91 669.15 161.25 C 662.21 162.59 654.25 165.05 650.78 171.78 C 646.87 179.92 647.64 189.20 647.59 197.96 C 647.45 200.85 648.58 203.54 649.84 206.07 C 648.18 207.13 646.60 208.28 645.00 209.41 C 645.10 199.59 644.82 189.75 645.11 179.93 C 645.30 173.01 647.64 165.67 653.36 161.35 C 660.36 156.02 669.54 155.01 678.06 154.77 C 687.16 154.80 697.03 155.80 704.45 161.58 C 710.55 166.40 712.47 174.58 712.46 182.01 C 712.52 208.70 712.44 235.39 712.49 262.08 C 718.62 262.19 724.75 262.18 730.88 262.08 C 730.89 236.37 730.88 210.66 730.89 184.95 C 731.13 174.91 728.87 164.66 723.01 156.36 C 729.06 156.44 735.11 156.40 741.17 156.34 C 741.42 152.05 741.66 147.77 741.97 143.49 Z" />
</g>
<g id="#0900002d">
<path fill="#090000" opacity="0.18" d=" M 160.60 145.88 C 162.33 147.93 164.10 149.97 165.90 151.97 C 164.36 153.17 162.85 154.41 161.33 155.64 C 161.08 152.38 160.83 149.13 160.60 145.88 Z" />
</g>
<g id="#00000032">
<path fill="#000000" opacity="0.20" d=" M 111.57 147.39 C 112.72 149.04 113.66 150.90 113.53 152.97 C 113.51 163.32 113.61 173.67 113.23 184.01 C 113.71 195.34 113.38 206.67 113.54 218.00 C 113.54 229.66 111.49 241.90 104.43 251.49 C 97.42 261.30 85.47 266.05 73.94 267.97 C 66.87 268.77 59.72 269.96 52.60 268.83 C 39.54 267.95 25.72 265.19 15.53 256.41 C 7.35 249.52 4.06 238.40 4.39 228.00 C 4.35 225.93 5.47 224.15 6.35 222.37 C 5.48 231.59 6.92 241.63 13.11 248.89 C 20.29 257.34 31.35 261.20 41.99 262.98 C 53.84 264.76 66.06 264.95 77.85 262.57 C 87.03 260.69 96.10 256.47 102.09 249.06 C 108.98 240.72 111.36 229.64 111.49 219.06 C 111.57 195.17 111.40 171.28 111.57 147.39 Z" />
<path fill="#000000" opacity="0.20" d=" M 272.47 230.03 C 272.69 225.14 271.39 219.73 274.31 215.39 C 274.44 228.86 274.34 242.33 274.37 255.80 C 291.09 262.13 309.13 265.02 326.98 264.13 C 339.39 263.38 352.73 259.91 361.18 250.16 C 367.98 242.34 369.17 231.41 368.41 221.45 C 371.35 225.35 370.69 230.45 370.21 234.99 C 368.84 245.40 363.57 256.00 354.02 261.12 C 343.84 267.42 331.67 268.88 319.96 269.45 C 306.33 268.61 292.55 266.95 279.62 262.35 C 276.26 261.29 273.23 258.70 272.89 255.00 C 271.90 246.72 272.77 238.35 272.47 230.03 Z" />
</g>
<g id="#00000022">
<path fill="#000000" opacity="0.13" d=" M 515.67 161.41 C 513.94 156.89 513.39 150.82 517.39 147.30 C 517.42 151.70 517.42 156.09 517.42 160.49 C 529.14 156.54 541.57 154.06 553.98 154.98 C 560.43 155.48 567.55 156.83 572.01 161.96 C 576.65 167.49 576.72 175.18 577.08 182.02 C 577.17 208.71 577.08 235.40 577.12 262.09 C 583.27 262.20 589.42 262.19 595.58 262.10 C 595.60 236.05 595.59 210.01 595.58 183.97 C 595.62 175.11 594.77 166.09 591.29 157.86 C 594.77 159.85 595.43 164.07 596.45 167.59 C 598.87 176.50 598.47 185.81 598.66 194.95 C 598.64 214.98 598.63 235.00 598.68 255.03 C 598.54 258.89 598.50 263.57 595.20 266.19 C 591.23 268.41 586.37 268.70 581.96 268.02 C 578.20 267.50 574.79 264.51 574.46 260.62 C 573.89 255.10 574.58 249.54 574.16 244.01 C 573.60 236.68 574.52 229.36 574.31 222.02 C 574.07 207.14 574.90 192.22 573.43 177.38 C 572.89 172.91 571.41 168.15 567.77 165.24 C 564.37 162.70 560.10 161.67 555.95 161.31 C 548.99 160.83 541.91 160.50 535.05 161.99 C 530.65 162.77 526.36 164.22 521.90 164.60 C 519.44 164.84 516.59 163.91 515.67 161.41 Z" />
</g>
<g id="#00000019">
<path fill="#000000" opacity="0.10" d=" M 269.24 178.89 C 267.55 169.46 268.88 157.47 277.58 151.80 L 276.79 153.20 C 270.97 161.75 270.81 173.19 275.09 182.43 C 276.87 190.03 284.06 194.47 290.84 197.16 C 305.41 202.53 321.00 204.36 335.70 209.29 C 341.75 211.13 345.68 216.25 349.36 221.04 C 349.27 220.47 349.11 219.33 349.02 218.76 C 351.21 227.42 350.88 239.39 341.99 244.19 L 341.42 244.03 C 341.77 241.97 343.73 240.54 344.58 238.65 C 346.70 233.72 346.77 228.01 345.25 222.90 C 343.81 218.09 339.78 214.42 335.10 212.83 C 319.11 207.05 301.69 205.97 286.15 198.80 C 278.04 195.01 271.18 187.80 269.24 178.89 Z" />
</g>
<g id="#00000034">
<path fill="#000000" opacity="0.20" d=" M 33.30 157.36 C 41.23 153.62 50.51 154.39 58.84 156.20 C 59.55 156.48 60.97 157.05 61.68 157.33 C 60.14 158.33 58.62 159.66 56.67 159.62 C 51.07 159.96 45.42 158.93 39.86 159.93 C 34.84 160.85 30.03 164.15 28.14 169.01 C 27.29 172.78 27.33 176.70 26.58 180.50 C 23.70 172.56 25.06 161.53 33.30 157.36 Z" />
</g>
<g id="#00000036">
<path fill="#000000" opacity="0.21" d=" M 299.16 157.29 C 305.27 155.57 311.66 155.17 317.98 154.87 C 333.05 154.21 348.21 156.36 362.56 160.99 C 361.01 163.15 358.58 164.26 355.95 163.42 C 346.76 161.45 337.49 159.29 328.02 159.50 C 317.63 159.64 306.67 158.71 296.91 162.97 C 292.72 164.70 291.80 169.50 290.41 173.29 C 289.58 169.96 289.23 166.23 290.93 163.10 C 292.53 159.94 295.88 158.21 299.16 157.29 Z" />
</g>
<g id="#00000031">
<path fill="#000000" opacity="0.19" d=" M 775.10 160.62 C 789.55 156.05 804.82 154.20 819.95 154.92 C 825.87 155.30 831.99 155.91 837.37 158.61 C 841.34 160.53 844.49 164.02 845.95 168.18 C 848.65 175.57 847.90 183.59 848.00 191.31 C 847.33 191.30 845.99 191.30 845.32 191.30 C 845.75 183.56 846.55 174.89 841.77 168.23 C 837.14 162.17 829.14 160.68 822.00 160.07 C 813.31 158.80 804.58 160.29 795.92 161.06 C 789.48 161.66 783.16 164.50 776.63 163.35 C 776.06 162.47 775.54 161.56 775.10 160.62 Z" />
</g>
<g id="#00000025">
<path fill="#000000" opacity="0.15" d=" M 862.21 159.88 C 864.44 161.60 865.55 164.21 866.24 166.86 C 868.22 173.71 869.42 180.82 869.40 187.97 C 869.33 210.63 869.38 233.30 869.39 255.96 C 869.33 259.87 868.65 264.76 864.62 266.58 C 860.37 268.36 855.45 268.13 851.06 267.01 C 848.23 266.37 846.21 263.85 845.77 261.06 C 844.85 256.10 845.61 251.02 845.21 246.01 C 844.33 235.13 846.47 224.17 844.59 213.35 C 837.18 211.50 829.50 212.73 821.97 212.40 C 811.79 212.68 801.03 211.10 791.47 215.49 C 787.34 217.27 784.57 221.31 783.72 225.63 C 782.60 231.21 783.68 236.89 784.63 242.41 C 781.15 238.49 780.00 233.12 780.14 228.00 C 780.09 222.08 781.97 215.66 786.92 212.00 C 792.99 207.61 800.78 206.92 808.04 206.65 C 821.32 206.56 834.60 206.66 847.88 206.61 C 848.11 225.10 847.93 243.59 848.00 262.08 C 854.15 262.19 860.30 262.19 866.45 262.08 C 866.46 236.07 866.47 210.05 866.45 184.04 C 866.47 175.82 865.38 167.51 862.21 159.88 Z" />
</g>
<g id="#0000003a">
<path fill="#000000" opacity="0.23" d=" M 290.84 197.16 C 284.06 194.47 276.87 190.03 275.09 182.43 C 279.32 187.59 284.68 191.93 291.03 194.13 C 305.65 199.37 321.20 201.22 335.94 206.03 C 341.90 207.96 347.59 212.39 349.02 218.76 C 349.11 219.33 349.27 220.47 349.36 221.04 C 345.68 216.25 341.75 211.13 335.70 209.29 C 321.00 204.36 305.41 202.53 290.84 197.16 Z" />
</g>
<g id="#00000035">
<path fill="#000000" opacity="0.21" d=" M 8.44 184.03 C 11.16 191.04 16.93 196.45 23.95 199.03 C 22.16 200.03 20.37 201.03 18.65 202.15 C 15.01 198.05 10.92 194.18 8.47 189.20 C 7.46 187.59 8.03 185.72 8.44 184.03 Z" />
</g>
<g id="#0000002f">
<path fill="#000000" opacity="0.18" d=" M 34.47 208.48 C 43.29 204.25 53.39 206.15 62.81 205.71 C 62.63 207.82 61.52 209.95 59.18 210.21 C 52.04 211.16 44.54 210.07 37.65 212.66 C 32.51 214.76 27.94 219.38 27.44 225.12 C 27.22 228.96 27.15 232.80 26.57 236.61 C 22.33 227.16 24.55 213.47 34.47 208.48 Z" />
</g>
<g id="#00000017">
<path fill="#000000" opacity="0.09" d=" M 291.51 210.43 C 292.81 211.81 294.49 213.13 294.75 215.16 C 296.46 222.65 295.45 230.37 295.70 237.96 C 295.74 240.76 296.88 243.35 297.97 245.87 C 295.79 245.28 293.64 244.60 291.49 243.93 C 291.50 232.76 291.43 221.59 291.51 210.43 Z" />
</g>
<g id="#0000002e">
<path fill="#000000" opacity="0.18" d=" M 762.16 219.40 L 762.47 221.19 C 761.83 229.87 761.95 239.06 766.12 246.95 C 770.19 254.94 778.35 260.06 786.81 262.35 C 798.48 265.41 810.87 264.67 822.56 262.09 C 822.56 258.53 822.58 254.97 822.62 251.41 C 825.26 254.65 825.13 259.19 823.96 262.99 C 822.18 267.27 817.15 268.44 813.00 268.96 C 799.84 270.50 785.52 269.35 774.25 261.76 C 768.04 257.74 763.58 251.31 761.72 244.18 C 759.67 236.10 758.80 227.27 762.16 219.40 Z" />
</g>
<g id="#0000003b">
<path fill="#000000" opacity="0.23" d=" M 82.22 288.69 C 86.94 288.72 91.67 288.63 96.40 288.65 C 96.41 290.61 96.42 292.56 96.43 294.52 C 91.69 292.59 86.88 290.83 82.22 288.69 Z" />
</g>
</svg>
